<mxfile host="app.diagrams.net" modified="2023-12-27T02:27:29.995Z" agent="Mozilla/5.0 (Macintosh; Intel Mac OS X 10_15_7) AppleWebKit/537.36 (KHTML, like Gecko) Chrome/120.0.0.0 Safari/537.36" version="22.1.12" etag="jo9fiiTAlCtxySRNoqQI" type="github">
  <diagram name="第 1 页" id="ol_eQktwZQZwRvcVFY19">
    <mxGraphModel>
      <root>
        <mxCell id="0" />
        <mxCell id="1" parent="0" />
      </root>
    </mxGraphModel>
  </diagram>
</mxfile>
